<?xml version="1.0" standalone="no"?><!DOCTYPE svg PUBLIC "-//W3C//DTD SVG 1.1//EN" "http://www.w3.org/Graphics/SVG/1.1/DTD/svg11.dtd"><svg t="1550884237612" class="icon" style="" viewBox="0 0 1024 1024" version="1.1" xmlns="http://www.w3.org/2000/svg" p-id="1302" xmlns:xlink="http://www.w3.org/1999/xlink" width="200" height="200"><defs><style type="text/css"></style></defs><path d="M869.87 418.3c-61.21 67.58-160.79 158.09-298.41 223.48h-61.9c-137.62-65.39-237.2-155.9-298.4-223.48-51.83 39.24-85.28 100.84-85.28 170.16 0 118.47 97.59 214.52 218 214.52a218.63 218.63 0 0 0 167.93-78h57.46a218.67 218.67 0 0 0 168 78c120.36 0 218-96.05 218-214.52-0.12-69.32-33.57-130.92-85.4-170.16z" fill="#FFE13A" p-id="1303"></path><path d="M737.19 823a238.65 238.65 0 0 1-177-78h-39.3a238.63 238.63 0 0 1-177 78c-63.51 0-123.23-24.35-168.16-68.58s-69.81-103.24-69.81-165.94A229.24 229.24 0 0 1 131.28 483a237.72 237.72 0 0 1 67.81-80.62 20 20 0 0 1 26.91 2.5c57.46 63.44 153.91 152.28 288.12 216.9h52.83c134.19-64.61 230.64-153.45 288.12-216.9a20 20 0 0 1 26.89-2.52A237.72 237.72 0 0 1 949.75 483a229.24 229.24 0 0 1 25.4 105.48c0 62.7-24.79 121.63-69.82 165.94S800.68 823 737.19 823zM511.78 705h57.46a20 20 0 0 1 15.32 7.14A198.71 198.71 0 0 0 737.19 783c109.15 0 198-87.26 198-194.52 0-54.81-22.91-105.88-63.44-142.67-61.62 65.4-159.17 151.1-291.66 214.06a20.11 20.11 0 0 1-8.59 1.93h-61.9a20 20 0 0 1-8.58-1.93c-132.52-63-230-148.66-291.66-214.06-40.53 36.79-63.44 87.86-63.44 142.67 0 107.26 88.81 194.52 198 194.52a198.66 198.66 0 0 0 152.61-70.89 20 20 0 0 1 15.25-7.17z" fill="#1A1A1A" p-id="1304"></path><path d="M211.17 438.31a20.35 20.35 0 0 1-5-0.64 20 20 0 0 1-14.34-24.38l54.25-209.48a20 20 0 0 1 29.57-12.19L546 352.2a20 20 0 0 1-20.43 34.39l-247.46-147-47.59 183.73a20 20 0 0 1-19.35 14.99z" fill="#1A1A1A" p-id="1305"></path><path d="M857.9 438.31a20 20 0 0 1-19.37-15.07l-46.74-183.38L557.4 381.31a20 20 0 1 1-20.67-34.25L794.19 191.7a20 20 0 0 1 29.71 12.18l53.4 209.48a20 20 0 0 1-14.45 24.32 19.59 19.59 0 0 1-4.95 0.63z" fill="#1A1A1A" p-id="1306"></path><path d="M458 637s-49.55 53.68-67.55 62.4l32.35 69.37s63.38-29.74 109.89-97z" fill="#4AC5FF" p-id="1307"></path><path d="M156.88 474.06s272.57 203.2 279.39 312.76c0 0-374.97 64.52-279.39-312.76z" fill="#FF7214" p-id="1308"></path><path d="M122.74 134.19m12 0l63.88 0q12 0 12 12l0 5.34q0 12-12 12l-63.88 0q-12 0-12-12l0-5.34q0-12 12-12Z" fill="#FF8395" p-id="1309"></path><path d="M181.34 104.92m0 12l0 63.88q0 12-12 12l-5.34 0q-12 0-12-12l0-63.88q0-12 12-12l5.34 0q12 0 12 12Z" fill="#FF8395" p-id="1310"></path><path d="M541.09 191.48m12 0l79.9 0q12 0 12 12l0 10.69q0 12-12 12l-79.9 0q-12 0-12-12l0-10.69q0-12 12-12Z" fill="#FFE13A" p-id="1311"></path><path d="M610.38 156.87m0 12l0 79.9q0 12-12 12l-10.69 0q-12 0-12-12l0-79.9q0-12 12-12l10.69 0q12 0 12 12Z" fill="#FFE13A" p-id="1312"></path><path d="M509.39 140.1m-16.77 0a16.77 16.77 0 1 0 33.54 0 16.77 16.77 0 1 0-33.54 0Z" fill="#FF7214" p-id="1313"></path><path d="M138.76 298.76m-16.77 0a16.77 16.77 0 1 0 33.54 0 16.77 16.77 0 1 0-33.54 0Z" fill="#FF7214" p-id="1314"></path><path d="M888.31 262.53m12 0l79.9 0q12 0 12 12l0 10.69q0 12-12 12l-79.9 0q-12 0-12-12l0-10.69q0-12 12-12Z" fill="#4AC5FF" p-id="1315"></path><path d="M957.6 227.92m0 12l0 79.9q0 12-12 12l-10.69 0q-12 0-12-12l0-79.9q0-12 12-12l10.69 0q12 0 12 12Z" fill="#4AC5FF" p-id="1316"></path><path d="M923.49 174.3m-16.77 0a16.77 16.77 0 1 0 33.54 0 16.77 16.77 0 1 0-33.54 0Z" fill="#FF7214" p-id="1317"></path><path d="M180.1 573.22m-13.88 0a13.88 13.88 0 1 0 27.76 0 13.88 13.88 0 1 0-27.76 0Z" fill="#FFFFFF" p-id="1318"></path><path d="M318.18 770.78a7.93 7.93 0 0 1-2.19-0.31c-33.69-9.6-62.2-23.11-84.75-40.16-18.29-13.83-32.72-30-42.88-48.06-17.53-31.14-16.31-57.09-16.25-58.18a8 8 0 0 1 16 0.87c0 0.37-0.86 23.2 14.7 50.33 20.79 36.22 61.44 63.82 117.58 79.81a8 8 0 0 1-2.19 15.7z" fill="#FFFFFF" p-id="1319"></path><path d="M6.91 534.44m11.57 0l46.15 0q11.57 0 11.57 11.57l0-0.01q0 11.57-11.57 11.57l-46.15 0q-11.57 0-11.57-11.57l0 0.01q0-11.57 11.57-11.57Z" fill="#FFE13A" p-id="1320"></path><path d="M53.13 511.36m0 11.57l0 46.15q0 11.57-11.57 11.57l0.01 0q-11.57 0-11.57-11.57l0-46.15q0-11.57 11.57-11.57l-0.01 0q11.57 0 11.57 11.57Z" fill="#FFE13A" p-id="1321"></path><path d="M95.02 492.85m-16.77 0a16.77 16.77 0 1 0 33.54 0 16.77 16.77 0 1 0-33.54 0Z" fill="#4AC5FF" p-id="1322"></path></svg>